<svg width="158" height="75" viewBox="0 0 158 75" fill="none" xmlns="http://www.w3.org/2000/svg">
<g opacity="0.4">
<path fill-rule="evenodd" clip-rule="evenodd" d="M30.7185 0H7.65588V12.2331H30.7185V0ZM30.7185 45.5358C30.1709 51.4784 27.0246 54.4846 21.4887 54.4846C16.7837 54.4846 12.8314 52.0379 9.2556 47.2388L0.786499 57.4017C5.58566 63.6124 13.396 67 22.2416 67C25.3669 67 28.1948 66.6759 30.7185 66.0255V45.5358ZM35.6196 64.1518C42.4301 60.5207 45.955 53.404 45.955 42.7219V0H35.6196V64.1518Z" fill="white"/>
<path d="M56.134 27.108C55.21 27.144 54.748 26.826 54.748 26.154C54.748 25.866 54.826 25.65 54.982 25.506C55.126 25.35 55.36 25.26 55.684 25.236L56.26 25.2C56.752 25.176 57.124 25.02 57.376 24.732C57.628 24.444 57.754 24.006 57.754 23.418V15.372C57.754 15.024 57.856 14.748 58.06 14.544C58.276 14.328 58.558 14.22 58.906 14.22C59.266 14.22 59.548 14.328 59.752 14.544C59.968 14.748 60.076 15.024 60.076 15.372V23.418C60.076 25.686 58.954 26.904 56.71 27.072L56.134 27.108ZM66.4372 17.982C67.6612 17.982 68.5672 18.288 69.1552 18.9C69.7552 19.5 70.0552 20.418 70.0552 21.654V26.046C70.0552 26.37 69.9592 26.628 69.7672 26.82C69.5752 27 69.3112 27.09 68.9752 27.09C68.6632 27.09 68.4052 26.994 68.2012 26.802C68.0092 26.61 67.9132 26.358 67.9132 26.046V25.65C67.7092 26.118 67.3852 26.484 66.9412 26.748C66.5092 27.012 66.0052 27.144 65.4292 27.144C64.8412 27.144 64.3072 27.024 63.8272 26.784C63.3472 26.544 62.9692 26.214 62.6932 25.794C62.4172 25.374 62.2792 24.906 62.2792 24.39C62.2792 23.742 62.4412 23.232 62.7652 22.86C63.1012 22.488 63.6412 22.218 64.3852 22.05C65.1292 21.882 66.1552 21.798 67.4632 21.798H67.9132V21.384C67.9132 20.796 67.7872 20.37 67.5352 20.106C67.2832 19.83 66.8752 19.692 66.3112 19.692C65.9632 19.692 65.6092 19.746 65.2492 19.854C64.8892 19.95 64.4632 20.094 63.9712 20.286C63.6592 20.442 63.4312 20.52 63.2872 20.52C63.0712 20.52 62.8912 20.442 62.7472 20.286C62.6152 20.13 62.5492 19.926 62.5492 19.674C62.5492 19.47 62.5972 19.296 62.6932 19.152C62.8012 18.996 62.9752 18.852 63.2152 18.72C63.6352 18.492 64.1332 18.312 64.7092 18.18C65.2972 18.048 65.8732 17.982 66.4372 17.982ZM65.8792 25.524C66.4792 25.524 66.9652 25.326 67.3372 24.93C67.7212 24.522 67.9132 24 67.9132 23.364V22.986H67.5892C66.7852 22.986 66.1612 23.022 65.7172 23.094C65.2732 23.166 64.9552 23.292 64.7632 23.472C64.5712 23.652 64.4752 23.898 64.4752 24.21C64.4752 24.594 64.6072 24.912 64.8712 25.164C65.1472 25.404 65.4832 25.524 65.8792 25.524ZM75.5279 27.144C74.2199 27.144 73.1639 26.886 72.3599 26.37C71.9759 26.142 71.7839 25.818 71.7839 25.398C71.7839 25.158 71.8499 24.966 71.9819 24.822C72.1139 24.666 72.2759 24.588 72.4679 24.588C72.6719 24.588 72.9539 24.684 73.3139 24.876C73.6979 25.056 74.0459 25.194 74.3579 25.29C74.6819 25.386 75.0899 25.434 75.5819 25.434C76.0859 25.434 76.4759 25.35 76.7519 25.182C77.0399 25.014 77.1839 24.78 77.1839 24.48C77.1839 24.276 77.1239 24.114 77.0039 23.994C76.8959 23.874 76.6919 23.766 76.3919 23.67C76.1039 23.562 75.6599 23.442 75.0599 23.31C73.9919 23.094 73.2239 22.788 72.7559 22.392C72.2999 21.996 72.0719 21.45 72.0719 20.754C72.0719 20.226 72.2279 19.752 72.5399 19.332C72.8519 18.9 73.2779 18.57 73.8179 18.342C74.3699 18.102 74.9939 17.982 75.6899 17.982C76.1939 17.982 76.6799 18.048 77.1479 18.18C77.6159 18.3 78.0359 18.48 78.4079 18.72C78.7919 18.96 78.9839 19.278 78.9839 19.674C78.9839 19.914 78.9179 20.118 78.7859 20.286C78.6539 20.442 78.4919 20.52 78.2999 20.52C78.1679 20.52 78.0359 20.496 77.9039 20.448C77.7839 20.388 77.6279 20.304 77.4359 20.196C77.0879 20.016 76.7879 19.884 76.5359 19.8C76.2839 19.704 75.9719 19.656 75.5999 19.656C75.1559 19.656 74.8019 19.746 74.5379 19.926C74.2859 20.106 74.1599 20.352 74.1599 20.664C74.1599 20.964 74.2919 21.192 74.5559 21.348C74.8199 21.504 75.3299 21.66 76.0859 21.816C76.8899 21.984 77.5199 22.176 77.9759 22.392C78.4319 22.608 78.7559 22.878 78.9479 23.202C79.1519 23.526 79.2539 23.94 79.2539 24.444C79.2539 25.26 78.9119 25.914 78.2279 26.406C77.5559 26.898 76.6559 27.144 75.5279 27.144ZM85.0922 27.144C84.1922 27.144 83.4002 26.958 82.7162 26.586C82.0442 26.214 81.5222 25.68 81.1502 24.984C80.7782 24.288 80.5922 23.478 80.5922 22.554C80.5922 21.63 80.7782 20.826 81.1502 20.142C81.5222 19.446 82.0442 18.912 82.7162 18.54C83.4002 18.168 84.1922 17.982 85.0922 17.982C85.9922 17.982 86.7782 18.168 87.4502 18.54C88.1342 18.912 88.6562 19.446 89.0162 20.142C89.3882 20.826 89.5742 21.63 89.5742 22.554C89.5742 23.478 89.3882 24.288 89.0162 24.984C88.6562 25.68 88.1342 26.214 87.4502 26.586C86.7782 26.958 85.9922 27.144 85.0922 27.144ZM85.0742 25.398C85.8062 25.398 86.3642 25.158 86.7482 24.678C87.1322 24.198 87.3242 23.49 87.3242 22.554C87.3242 21.63 87.1322 20.928 86.7482 20.448C86.3642 19.956 85.8122 19.71 85.0922 19.71C84.3722 19.71 83.8142 19.956 83.4182 20.448C83.0342 20.928 82.8422 21.63 82.8422 22.554C82.8422 23.49 83.0342 24.198 83.4182 24.678C83.8022 25.158 84.3542 25.398 85.0742 25.398ZM96.5437 17.982C97.5997 17.982 98.3857 18.282 98.9017 18.882C99.4177 19.482 99.6757 20.388 99.6757 21.6V26.028C99.6757 26.364 99.5737 26.628 99.3697 26.82C99.1777 27.012 98.9077 27.108 98.5597 27.108C98.2117 27.108 97.9357 27.012 97.7317 26.82C97.5277 26.628 97.4257 26.364 97.4257 26.028V21.726C97.4257 21.042 97.2937 20.544 97.0297 20.232C96.7777 19.92 96.3757 19.764 95.8237 19.764C95.1757 19.764 94.6537 19.968 94.2577 20.376C93.8737 20.784 93.6817 21.33 93.6817 22.014V26.028C93.6817 26.364 93.5797 26.628 93.3757 26.82C93.1717 27.012 92.8957 27.108 92.5477 27.108C92.1997 27.108 91.9237 27.012 91.7197 26.82C91.5277 26.628 91.4317 26.364 91.4317 26.028V19.062C91.4317 18.75 91.5337 18.498 91.7377 18.306C91.9417 18.114 92.2177 18.018 92.5657 18.018C92.8777 18.018 93.1297 18.114 93.3217 18.306C93.5257 18.486 93.6277 18.726 93.6277 19.026V19.512C93.9277 19.02 94.3297 18.642 94.8337 18.378C95.3377 18.114 95.9077 17.982 96.5437 17.982ZM65.98 39.22C66.316 39.22 66.58 39.328 66.772 39.544C66.976 39.748 67.078 40.024 67.078 40.372V50.938C67.078 51.286 66.976 51.568 66.772 51.784C66.568 52 66.304 52.108 65.98 52.108C65.596 52.108 65.302 51.97 65.098 51.694L58.528 43.144V50.938C58.528 51.286 58.432 51.568 58.24 51.784C58.048 52 57.784 52.108 57.448 52.108C57.112 52.108 56.848 52 56.656 51.784C56.464 51.568 56.368 51.286 56.368 50.938V40.372C56.368 40.024 56.47 39.748 56.674 39.544C56.878 39.328 57.148 39.22 57.484 39.22C57.856 39.22 58.144 39.358 58.348 39.634L64.9 48.148V40.372C64.9 40.024 64.996 39.748 65.188 39.544C65.392 39.328 65.656 39.22 65.98 39.22ZM76.5833 49.588C76.7873 49.588 76.9493 49.666 77.0693 49.822C77.2013 49.978 77.2673 50.188 77.2673 50.452C77.2673 50.824 77.0453 51.136 76.6013 51.388C76.1933 51.616 75.7313 51.802 75.2153 51.946C74.6993 52.078 74.2073 52.144 73.7393 52.144C72.3233 52.144 71.2013 51.736 70.3733 50.92C69.5453 50.104 69.1313 48.988 69.1313 47.572C69.1313 46.672 69.3113 45.874 69.6713 45.178C70.0313 44.482 70.5353 43.942 71.1833 43.558C71.8433 43.174 72.5873 42.982 73.4153 42.982C74.2073 42.982 74.8973 43.156 75.4853 43.504C76.0733 43.852 76.5293 44.344 76.8533 44.98C77.1773 45.616 77.3393 46.366 77.3393 47.23C77.3393 47.746 77.1113 48.004 76.6553 48.004H71.3453C71.4173 48.832 71.6513 49.444 72.0473 49.84C72.4433 50.224 73.0193 50.416 73.7753 50.416C74.1593 50.416 74.4953 50.368 74.7833 50.272C75.0833 50.176 75.4193 50.044 75.7913 49.876C76.1513 49.684 76.4153 49.588 76.5833 49.588ZM73.4693 44.566C72.8573 44.566 72.3653 44.758 71.9933 45.142C71.6333 45.526 71.4173 46.078 71.3453 46.798H75.4133C75.3893 46.066 75.2093 45.514 74.8733 45.142C74.5373 44.758 74.0693 44.566 73.4693 44.566ZM90.9371 43.684C91.0211 43.468 91.1411 43.306 91.2971 43.198C91.4651 43.09 91.6451 43.036 91.8371 43.036C92.1131 43.036 92.3591 43.132 92.5751 43.324C92.8031 43.504 92.9171 43.732 92.9171 44.008C92.9171 44.164 92.8871 44.302 92.8271 44.422L89.8571 51.388C89.7611 51.616 89.6111 51.79 89.4071 51.91C89.2151 52.03 88.9991 52.09 88.7591 52.09C88.5311 52.09 88.3151 52.03 88.1111 51.91C87.9191 51.79 87.7751 51.616 87.6791 51.388L85.5371 46.24L83.4671 51.388C83.3711 51.616 83.2211 51.79 83.0171 51.91C82.8251 52.03 82.6091 52.09 82.3691 52.09C82.1411 52.09 81.9251 52.03 81.7211 51.91C81.5171 51.79 81.3671 51.616 81.2711 51.388L78.3191 44.422C78.2591 44.266 78.2291 44.134 78.2291 44.026C78.2291 43.75 78.3491 43.516 78.5891 43.324C78.8291 43.12 79.0931 43.018 79.3811 43.018C79.5851 43.018 79.7711 43.072 79.9391 43.18C80.1071 43.288 80.2331 43.45 80.3171 43.666L82.4411 49.156L84.6191 43.72C84.7151 43.492 84.8531 43.324 85.0331 43.216C85.2131 43.096 85.4111 43.036 85.6271 43.036C85.8431 43.036 86.0411 43.096 86.2211 43.216C86.4011 43.324 86.5391 43.492 86.6351 43.72L88.8311 49.174L90.9371 43.684ZM95.5712 52.108C95.2472 52.108 94.9772 52.018 94.7612 51.838C94.5572 51.646 94.4552 51.376 94.4552 51.028V44.08C94.4552 43.732 94.5572 43.468 94.7612 43.288C94.9772 43.108 95.2472 43.018 95.5712 43.018C95.8952 43.018 96.1652 43.108 96.3812 43.288C96.5972 43.468 96.7052 43.732 96.7052 44.08V51.028C96.7052 51.376 96.5972 51.646 96.3812 51.838C96.1652 52.018 95.8952 52.108 95.5712 52.108ZM95.5712 41.416C95.1632 41.416 94.8392 41.308 94.5992 41.092C94.3592 40.864 94.2392 40.57 94.2392 40.21C94.2392 39.85 94.3592 39.562 94.5992 39.346C94.8392 39.13 95.1632 39.022 95.5712 39.022C95.9672 39.022 96.2852 39.13 96.5252 39.346C96.7772 39.562 96.9032 39.85 96.9032 40.21C96.9032 40.57 96.7832 40.864 96.5432 41.092C96.3032 41.308 95.9792 41.416 95.5712 41.416ZM104.137 42.982C105.193 42.982 105.979 43.282 106.495 43.882C107.011 44.482 107.269 45.388 107.269 46.6V51.028C107.269 51.364 107.167 51.628 106.963 51.82C106.771 52.012 106.501 52.108 106.153 52.108C105.805 52.108 105.529 52.012 105.325 51.82C105.121 51.628 105.019 51.364 105.019 51.028V46.726C105.019 46.042 104.887 45.544 104.623 45.232C104.371 44.92 103.969 44.764 103.417 44.764C102.769 44.764 102.247 44.968 101.851 45.376C101.467 45.784 101.275 46.33 101.275 47.014V51.028C101.275 51.364 101.173 51.628 100.969 51.82C100.765 52.012 100.489 52.108 100.141 52.108C99.7935 52.108 99.5175 52.012 99.3135 51.82C99.1215 51.628 99.0255 51.364 99.0255 51.028V44.062C99.0255 43.75 99.1275 43.498 99.3315 43.306C99.5355 43.114 99.8115 43.018 100.159 43.018C100.471 43.018 100.723 43.114 100.915 43.306C101.119 43.486 101.221 43.726 101.221 44.026V44.512C101.521 44.02 101.923 43.642 102.427 43.378C102.931 43.114 103.501 42.982 104.137 42.982ZM117.007 43.018C117.343 43.018 117.613 43.114 117.817 43.306C118.021 43.498 118.123 43.756 118.123 44.08V51.19C118.123 52.57 117.739 53.614 116.971 54.322C116.203 55.03 115.069 55.384 113.569 55.384C112.261 55.384 111.169 55.138 110.293 54.646C109.849 54.382 109.627 54.064 109.627 53.692C109.627 53.428 109.687 53.218 109.807 53.062C109.939 52.906 110.107 52.828 110.311 52.828C110.419 52.828 110.551 52.852 110.707 52.9C110.863 52.96 111.025 53.026 111.193 53.098C111.625 53.278 112.009 53.416 112.345 53.512C112.693 53.608 113.089 53.656 113.533 53.656C115.105 53.656 115.891 52.888 115.891 51.352V50.2C115.627 50.692 115.243 51.076 114.739 51.352C114.235 51.616 113.659 51.748 113.011 51.748C112.243 51.748 111.559 51.568 110.959 51.208C110.371 50.836 109.909 50.32 109.573 49.66C109.237 49 109.069 48.238 109.069 47.374C109.069 46.51 109.231 45.748 109.555 45.088C109.891 44.416 110.359 43.9 110.959 43.54C111.559 43.168 112.243 42.982 113.011 42.982C113.659 42.982 114.235 43.12 114.739 43.396C115.243 43.66 115.627 44.038 115.891 44.53V44.062C115.891 43.75 115.993 43.498 116.197 43.306C116.401 43.114 116.671 43.018 117.007 43.018ZM113.605 50.002C114.325 50.002 114.883 49.768 115.279 49.3C115.687 48.832 115.891 48.19 115.891 47.374C115.891 46.546 115.687 45.898 115.279 45.43C114.883 44.962 114.325 44.728 113.605 44.728C112.897 44.728 112.339 44.962 111.931 45.43C111.523 45.898 111.319 46.546 111.319 47.374C111.319 48.19 111.523 48.832 111.931 49.3C112.339 49.768 112.897 50.002 113.605 50.002ZM125.025 50.434C125.625 50.47 125.925 50.74 125.925 51.244C125.925 51.532 125.805 51.754 125.565 51.91C125.337 52.054 125.007 52.114 124.575 52.09L124.089 52.054C122.073 51.91 121.065 50.83 121.065 48.814V44.89H120.165C119.841 44.89 119.589 44.818 119.409 44.674C119.241 44.53 119.157 44.32 119.157 44.044C119.157 43.768 119.241 43.558 119.409 43.414C119.589 43.27 119.841 43.198 120.165 43.198H121.065V41.542C121.065 41.218 121.167 40.96 121.371 40.768C121.575 40.576 121.851 40.48 122.199 40.48C122.535 40.48 122.805 40.576 123.009 40.768C123.213 40.96 123.315 41.218 123.315 41.542V43.198H124.845C125.169 43.198 125.415 43.27 125.583 43.414C125.763 43.558 125.853 43.768 125.853 44.044C125.853 44.32 125.763 44.53 125.583 44.674C125.415 44.818 125.169 44.89 124.845 44.89H123.315V48.976C123.315 49.864 123.723 50.338 124.539 50.398L125.025 50.434ZM131.112 52.144C130.212 52.144 129.42 51.958 128.736 51.586C128.064 51.214 127.542 50.68 127.17 49.984C126.798 49.288 126.612 48.478 126.612 47.554C126.612 46.63 126.798 45.826 127.17 45.142C127.542 44.446 128.064 43.912 128.736 43.54C129.42 43.168 130.212 42.982 131.112 42.982C132.012 42.982 132.798 43.168 133.47 43.54C134.154 43.912 134.676 44.446 135.036 45.142C135.408 45.826 135.594 46.63 135.594 47.554C135.594 48.478 135.408 49.288 135.036 49.984C134.676 50.68 134.154 51.214 133.47 51.586C132.798 51.958 132.012 52.144 131.112 52.144ZM131.094 50.398C131.826 50.398 132.384 50.158 132.768 49.678C133.152 49.198 133.344 48.49 133.344 47.554C133.344 46.63 133.152 45.928 132.768 45.448C132.384 44.956 131.832 44.71 131.112 44.71C130.392 44.71 129.834 44.956 129.438 45.448C129.054 45.928 128.862 46.63 128.862 47.554C128.862 48.49 129.054 49.198 129.438 49.678C129.822 50.158 130.374 50.398 131.094 50.398ZM142.563 42.982C143.619 42.982 144.405 43.282 144.921 43.882C145.437 44.482 145.695 45.388 145.695 46.6V51.028C145.695 51.364 145.593 51.628 145.389 51.82C145.197 52.012 144.927 52.108 144.579 52.108C144.231 52.108 143.955 52.012 143.751 51.82C143.547 51.628 143.445 51.364 143.445 51.028V46.726C143.445 46.042 143.313 45.544 143.049 45.232C142.797 44.92 142.395 44.764 141.843 44.764C141.195 44.764 140.673 44.968 140.277 45.376C139.893 45.784 139.701 46.33 139.701 47.014V51.028C139.701 51.364 139.599 51.628 139.395 51.82C139.191 52.012 138.915 52.108 138.567 52.108C138.219 52.108 137.943 52.012 137.739 51.82C137.547 51.628 137.451 51.364 137.451 51.028V44.062C137.451 43.75 137.553 43.498 137.757 43.306C137.961 43.114 138.237 43.018 138.585 43.018C138.897 43.018 139.149 43.114 139.341 43.306C139.545 43.486 139.647 43.726 139.647 44.026V44.512C139.947 44.02 140.349 43.642 140.853 43.378C141.357 43.114 141.927 42.982 142.563 42.982Z" fill="white"/>
</g>
</svg>
